<svg width="85" height="86" viewBox="0 0 85 86" fill="none" xmlns="http://www.w3.org/2000/svg">
<g filter="url(#filter0_d_801_100)">
<mask id="mask0_801_100" style="mask-type:alpha" maskUnits="userSpaceOnUse" x="26" y="18" width="44" height="50">
<path d="M26.3031 22.7287C26.1947 19.5663 29.6273 17.536 32.3465 19.1544L67.2557 39.9311C69.8655 41.4844 69.8603 45.2652 67.2462 46.8113L33.7285 66.6349C31.1144 68.181 27.7986 66.3644 27.6946 63.329L26.3031 22.7287Z" fill="#271A45"/>
</mask>
<g mask="url(#mask0_801_100)">
<ellipse cx="47.6638" cy="33.8421" rx="25.8223" ry="25.8223" transform="rotate(-120.602 47.6638 33.8421)" fill="#C4302B"/>
<ellipse cx="35.3784" cy="38.9163" rx="25.8223" ry="25.8223" transform="rotate(-120.602 35.3784 38.9163)" fill="#D71E18"/>
<circle cx="16.2239" cy="34.8533" r="30.3657" transform="rotate(-120.602 16.2239 34.8533)" fill="#B22222"/>
<circle cx="7.68552" cy="78.7934" r="35.0398" transform="rotate(-120.602 7.68552 78.7934)" fill="#8B0000"/>
</g>
</g>
<defs>
<filter id="filter0_d_801_100" x="22.3005" y="18.5848" width="50.9094" height="56.6127" filterUnits="userSpaceOnUse" color-interpolation-filters="sRGB">
<feFlood flood-opacity="0" result="BackgroundImageFix"/>
<feColorMatrix in="SourceAlpha" type="matrix" values="0 0 0 0 0 0 0 0 0 0 0 0 0 0 0 0 0 0 127 0" result="hardAlpha"/>
<feOffset dy="4"/>
<feGaussianBlur stdDeviation="2"/>
<feComposite in2="hardAlpha" operator="out"/>
<feColorMatrix type="matrix" values="0 0 0 0 0 0 0 0 0 0 0 0 0 0 0 0 0 0 0.25 0"/>
<feBlend mode="normal" in2="BackgroundImageFix" result="effect1_dropShadow_801_100"/>
<feBlend mode="normal" in="SourceGraphic" in2="effect1_dropShadow_801_100" result="shape"/>
</filter>
</defs>
</svg>
